<svg width="19" height="18" viewBox="0 0 19 18" fill="none" xmlns="http://www.w3.org/2000/svg">
<path d="M17.8034 7.11985C17.3345 6.33314 16.6194 5.91 15.6775 5.86211C15.6208 5.8553 15.5665 5.85189 15.5137 5.85189L12.484 5.8413C12.6214 5.21639 12.6946 4.58429 12.6946 3.9974C12.6946 3.3967 12.6302 2.79097 12.5031 2.19673C12.4934 2.15155 12.4795 2.10741 12.4616 2.06489C12.1333 0.842669 11.0712 0 9.83655 0C8.37282 0 7.2691 1.22473 7.2691 2.84872L7.26802 2.88962C7.26662 2.93249 7.26504 2.98756 7.2682 3.05141C7.20546 4.74375 6.84175 6.22103 5.14265 6.43736L4.87387 6.47664C4.83449 6.47305 4.79512 6.47126 4.75574 6.47126C3.97862 6.47126 3.34635 7.12361 3.34635 7.92487L3.33984 16.5559C3.33984 17.3518 3.97247 17.9995 4.75014 17.9995L5.25077 18H5.25218L14.2354 17.9824C14.7879 17.9824 15.1346 17.8246 15.5468 17.5516C15.9541 17.2811 16.285 16.9065 16.5064 16.465C16.5825 16.3398 16.6391 16.206 16.6749 16.0664C16.6772 16.0572 16.6795 16.0481 16.6814 16.0391L18.1694 9.19227C18.2016 9.05916 18.2154 8.92212 18.2104 8.78511C18.2424 8.19516 18.1021 7.62029 17.8034 7.11985Z" fill="#C8201E"/>
<path d="M0 8C0 7.44771 0.447715 7 1 7H1.5C2.05228 7 2.5 7.44772 2.5 8V17C2.5 17.5523 2.05228 18 1.5 18H1C0.447715 18 0 17.5523 0 17L0 8Z" fill="#C8201E"/>
</svg>
