<svg width="19" height="19" viewBox="0 0 19 19" fill="none" xmlns="http://www.w3.org/2000/svg">
<path d="M3.58129 1.78928C1.91002 3.09133 0.716258 4.86685 0.238753 6.76074C0.238753 7.23421 0.358129 7.70768 0.835635 7.70768C1.19376 7.70768 1.55189 7.47095 1.67127 7.11584C2.14877 5.45869 3.10379 4.03827 4.5363 2.97296C7.87884 0.487231 12.6539 1.07907 15.3996 4.15664C15.6383 4.39338 15.7577 4.74848 15.7577 4.74848L14.3252 5.8138L18.9808 8.18116C19.1002 8.18116 18.6227 2.73622 18.6227 2.73622L17.1902 3.80154L16.7127 3.2097C13.1314 -0.459713 7.52071 -1.05155 3.58129 1.78928ZM14.4445 15.9935C10.9826 18.7159 5.84944 17.769 3.10379 14.2179L4.65568 13.0342L0 10.7853L0.358129 16.2302L1.79065 15.1649C5.13318 19.4261 11.3408 20.1363 15.2802 17.2955C17.0708 15.9935 18.2646 14.0996 18.6227 12.0873C18.7421 11.6138 18.5033 11.2587 18.0258 11.1404C17.6677 11.1404 17.3096 11.3771 17.1902 11.6138C16.9514 13.3894 15.8771 14.9281 14.4445 15.9935Z" fill="#5F6775"/>
</svg>
