<?xml version="1.0" encoding="utf-8" ?><svg xmlns="http://www.w3.org/2000/svg" xmlns:xlink="http://www.w3.org/1999/xlink" width="24" height="24"><path fill="#C7C7C7" transform="matrix(1 0 0 1 1.74902 1.80005)" d="M7.605 2.858L7.905 1.803C8.369 0.321 9.175 -0.312 10.765 0.147L10.805 0.16C11.27 0.303 11.805 0.575 12.307 1.031C13.097 1.751 13.567 2.749 13.567 4.0031C13.567 5.123 13.502 5.815 13.312 6.6L13.306 6.622L17.419 6.622C19.933 6.622 20.932 8.318 20.3 11.138L20.246 11.3691L20.118 11.791L19.635 13.364L19.409 14.083L19.194 14.755L18.794 15.965L18.521 16.7531L18.352 17.2231L18.118 17.841L17.975 18.198C17.283 19.868 15.855 20.635 13.988 20.415L5.751 19.8022L5.751 5.901C5.9557 5.7057 6.1481 5.4981 6.328 5.278C6.6129 4.9297 6.8612 4.5571 7.073 4.16L7.216 3.88C7.359 3.586 7.476 3.278 7.587 2.919L7.605 2.858ZM3.751 6.3239L3.482 6.324C1.288 6.324 0 7.535 0 9.657L0 16.302C0 17.982 0.724 19.161 2.115 19.574L2.385 19.6451L2.552 19.678L2.639 19.691L2.834 19.709L3.068 19.7191L3.361 19.724L3.751 19.724L3.751 6.3239Z" fill-rule="evenodd"/></svg>