<?xml version="1.0" encoding="utf-8" ?><svg xmlns="http://www.w3.org/2000/svg" xmlns:xlink="http://www.w3.org/1999/xlink" width="14" height="14"><path fill="#1A1A1A" transform="matrix(1 0 0 1 1 2)" d="M0 -0.65L6 -0.65L6 0.65L0 0.65Q-0.2725 0.6578 -0.4596 0.4596Q-0.6578 0.2725 -0.65 0Q-0.6578 -0.2725 -0.4596 -0.4596Q-0.2725 -0.6578 0 -0.65Z"/><path fill="#1A1A1A" transform="matrix(1 0 0 1 1 12)" d="M0 -0.65L4 -0.65L4 0.65L0 0.65Q-0.2725 0.6578 -0.4596 0.4596Q-0.6578 0.2725 -0.65 0Q-0.6578 -0.2725 -0.4596 -0.4596Q-0.2725 -0.6578 0 -0.65Z"/><path fill="#1A1A1A" transform="matrix(1 0 0 1 1 7)" d="M0 -0.65L10 -0.65L10 0.65L0 0.65Q-0.2725 0.6578 -0.4596 0.4596Q-0.6578 0.2725 -0.65 0Q-0.6578 -0.2725 -0.4596 -0.4596Q-0.2725 -0.6578 0 -0.65Z"/><path fill="#1A1A1A" transform="matrix(-1 0 0 -1 13 2)" d="M0 -0.65L4 -0.65L4 0.65L0 0.65Q-0.2725 0.6578 -0.4596 0.4596Q-0.6578 0.2725 -0.65 0Q-0.6578 -0.2725 -0.4596 -0.4596Q-0.2725 -0.6578 0 -0.65Z"/><path fill="#1A1A1A" transform="matrix(-1 0 0 -1 13 12)" d="M0 -0.65L6 -0.65L6 0.65L0 0.65Q-0.2725 0.6578 -0.4596 0.4596Q-0.6578 0.2725 -0.65 0Q-0.6578 -0.2725 -0.4596 -0.4596Q-0.2725 -0.6578 0 -0.65Z"/><clipPath id="clip_0"><path d="M14 0L0 0L0 14L14 14L14 0ZM9 2Q9 1.5858 8.7071 1.2929Q8.4142 1 8 1Q7.5858 1 7.2929 1.2929Q7 1.5858 7 2Q7 2.4142 7.2929 2.7071Q7.5858 3 8 3Q8.4142 3 8.7071 2.7071Q9 2.4142 9 2Z" clip-rule="evenodd"/></clipPath><g clip-path="url(#clip_0)"><path fill="#1A1A1A" transform="matrix(1 0 0 1 7 1)" d="M1 -1Q3 -1 3 1Q3 3 1 3Q-1 3 -1 1Q-1 -1 1 -1ZM1 1L1 1L1 1L1 1L1 1Z"/></g><clipPath id="clip_1"><path d="M14 0L0 0L0 14L14 14L14 0ZM7 12Q7 11.5858 6.7071 11.2929Q6.4142 11 6 11Q5.5858 11 5.2929 11.2929Q5 11.5858 5 12Q5 12.4142 5.2929 12.7071Q5.5858 13 6 13Q6.4142 13 6.7071 12.7071Q7 12.4142 7 12Z" clip-rule="evenodd"/></clipPath><g clip-path="url(#clip_1)"><path fill="#1A1A1A" transform="matrix(1 0 0 1 5 11)" d="M1 -1Q3 -1 3 1Q3 3 1 3Q-1 3 -1 1Q-1 -1 1 -1ZM1 1L1 1L1 1L1 1L1 1Z"/></g><clipPath id="clip_2"><path d="M14 0L0 0L0 14L14 14L14 0ZM13 7Q13 6.5858 12.7071 6.2929Q12.4142 6 12 6Q11.5858 6 11.2929 6.2929Q11 6.5858 11 7Q11 7.4142 11.2929 7.7071Q11.5858 8 12 8Q12.4142 8 12.7071 7.7071Q13 7.4142 13 7Z" clip-rule="evenodd"/></clipPath><g clip-path="url(#clip_2)"><path fill="#1A1A1A" transform="matrix(1 0 0 1 11 6)" d="M1 -1Q3 -1 3 1Q3 3 1 3Q-1 3 -1 1Q-1 -1 1 -1ZM1 1L1 1L1 1L1 1L1 1Z"/></g></svg>